<svg xmlns="http://www.w3.org/2000/svg" width="15.288" height="15.251" viewBox="0 0 15.288 15.251">
  <path id="address" d="M6.106,13.693v1.548l-.374-.3A25.1,25.1,0,0,1,2.9,12.172C.976,9.961,0,7.977,0,6.274V6.105a6.106,6.106,0,0,1,12.213,0v.169c0,.143-.008.288-.021.435L11,5.62a4.915,4.915,0,0,0-9.806.485v.169c0,2.878,3.708,6.361,4.915,7.419Zm3.664-.856h1.787V11.05H9.77ZM6.106,3.574A2.532,2.532,0,1,1,3.574,6.105,2.535,2.535,0,0,1,6.106,3.574Zm0,1.191a1.34,1.34,0,1,0,1.34,1.34A1.342,1.342,0,0,0,6.106,4.765Zm8.379,7.263-.335-.306v1.913a1.617,1.617,0,0,1-1.615,1.615H8.763a1.617,1.617,0,0,1-1.615-1.615V11.722l-.335.306-.8-.88,4.639-4.233,4.64,4.233Zm-1.526-1.393-2.31-2.107-2.31,2.107v3a.424.424,0,0,0,.424.424h3.772a.424.424,0,0,0,.424-.424Zm0,0" transform="translate(0 0.001)" fill="#fff"/>
</svg>
