<svg xmlns="http://www.w3.org/2000/svg" width="14.983" height="17.981" viewBox="0 0 14.983 17.981">
  <g id="bell" transform="translate(-42.675)">
    <g id="Group_4096" data-name="Group 4096" transform="translate(42.675)">
      <g id="Group_4095" data-name="Group 4095">
        <path id="Path_3927" data-name="Path 3927" d="M57.605,15.166l-1.286-2.144a6.369,6.369,0,0,1-.908-3.277V7.867a5.251,5.251,0,0,0-3.746-5.023V1.5a1.5,1.5,0,0,0-3,0V2.843a5.251,5.251,0,0,0-3.746,5.023V9.745a6.373,6.373,0,0,1-.907,3.276l-1.286,2.144a.375.375,0,0,0,.321.568H57.284a.375.375,0,0,0,.321-.567Z" transform="translate(-42.675)" fill="#fff"/>
      </g>
    </g>
    <g id="Group_4098" data-name="Group 4098" transform="translate(47.807 16.482)">
      <g id="Group_4097" data-name="Group 4097">
        <path id="Path_3928" data-name="Path 3928" d="M188.815,469.333a2.606,2.606,0,0,0,4.718,0Z" transform="translate(-188.815 -469.333)" fill="#fff"/>
      </g>
    </g>
  </g>
</svg>
