<svg xmlns="http://www.w3.org/2000/svg" width="213.534" height="178.273" viewBox="0 0 213.534 178.273">
  <g id="_404_Error-cuate" data-name="404 Error-cuate" transform="translate(-23.95 -94.913)" opacity="0.68">
    <g id="freepik--background-complete--inject-2" transform="translate(23.95 95.107)">
      <path id="Path_3938" data-name="Path 3938" d="M93.151,299.169c-7.66,7.5-8.959,19.1-7.336,29.264.045.23.4.168.4-.05,0-2.313-.073-4.6-.067-6.888.045-.106.078-.207.123-.308a15.264,15.264,0,0,0,4.973-5.331c1.282-2.52,1.786-5.353,2.761-7.985.1-.252-.174-.179-.353-.045C89,311.259,87.5,314.96,86.174,319.9a40.806,40.806,0,0,1,.812-7.694,26.219,26.219,0,0,1,6.367-12.818.149.149,0,1,0-.2-.218Z" transform="translate(-50.901 -184.969)" fill="#a6a6a6"/>
      <path id="Path_3939" data-name="Path 3939" d="M99.942,295.314c1.316.045,2.145,2.15,3.169,2.766a.991.991,0,0,0,1.456-.23c1.019-1.422-.381-3.175-1.68-4.155a14.878,14.878,0,0,0,2.733,1.26.958.958,0,0,0,1.232-.739c.442-1.937-1.982-2.8-3.651-2.839.806-.56,3.125-2.089,1.893-2.839s-3.965,1.428-4.849,2.145c-1.3,1.058-2.856,2.637-2.917,4.289C97.226,296.9,98.911,295.717,99.942,295.314Z" transform="translate(-56.236 -180.24)" fill="#dbdbdb"/>
      <path id="Path_3940" data-name="Path 3940" d="M99.45,297.031c1.68-.767,4.922.336,5.2-.3.56-1.3-2.027-2.189-3.427-2.363,1.288-.347,3.752-.9,3.679-2.139-.1-1.518-3.78-.213-5.65,1.215-2.346,1.8-2.335,3.545-1.943,3.892C97.837,297.81,99.17,297.155,99.45,297.031Z" transform="translate(-56.142 -181.633)" fill="#ebebeb"/>
      <path id="Path_3941" data-name="Path 3941" d="M67.809,297.838c7.94,7.2,9.671,18.748,8.439,28.967,0,.23-.392.185-.4-.034-.09-2.313-.106-4.609-.2-6.888l-.129-.308a15.331,15.331,0,0,1-5.174-5.152c-1.378-2.464-1.988-5.281-3.063-7.873-.1-.246.168-.185.347-.062,4.788,3.259,6.417,6.9,7.94,11.787a41.226,41.226,0,0,0-1.12-7.66A26.292,26.292,0,0,0,67.6,298.05C67.484,297.91,67.675,297.709,67.809,297.838Z" transform="translate(-43.008 -184.382)" fill="#a6a6a6"/>
      <path id="Path_3942" data-name="Path 3942" d="M60.225,294.206c-1.316.1-2.061,2.24-3.063,2.884a.986.986,0,0,1-1.462-.174c-1.07-1.383.258-3.186,1.534-4.217a15.094,15.094,0,0,1-2.682,1.361.952.952,0,0,1-1.26-.711c-.521-1.921,1.876-2.873,3.539-2.979-.829-.526-3.2-1.965-2-2.761s4.015,1.277,4.928,1.96c1.344,1.008,2.957,2.525,3.074,4.177C62.986,295.7,61.256,294.57,60.225,294.206Z" transform="translate(-36.83 -179.821)" fill="#dbdbdb"/>
      <path id="Path_3943" data-name="Path 3943" d="M62.034,295.908c-1.708-.7-4.905.526-5.2-.1-.6-1.277,1.943-2.24,3.36-2.492-1.3-.3-3.78-.762-3.752-2,.034-1.518,3.769-.358,5.689,1,2.413,1.714,2.464,3.449,2.089,3.813C63.68,296.631,62.319,296.026,62.034,295.908Z" transform="translate(-38.246 -181.216)" fill="#ebebeb"/>
      <path id="Path_3944" data-name="Path 3944" d="M77.161,310.657a78.168,78.168,0,0,0,2.469,11.39.286.286,0,1,0,.56-.112c-.521-3.505-1.473-6.955-1.994-10.46a52.329,52.329,0,0,1-.61-10.746c.33-5.913,1.937-12.207,5.8-16.833.09-.112-.1-.263-.179-.162-7.728,9.01-6.5,20.052-6.49,21.044-1.12-3.729-2.24-8.008-6.361-11.8-.179-.162-.319-.084-.286.2.734,6.938,2.654,10.527,6.68,14.218C76.847,308.507,76.987,309.582,77.161,310.657Z" transform="translate(-44.24 -178.18)" fill="#a6a6a6"/>
      <path id="Path_3945" data-name="Path 3945" d="M91.5,278.309c1.389-.616,3.309,1.154,4.681,1.271a1.12,1.12,0,0,0,1.394-.969c.342-1.988-1.988-3.1-3.847-3.455a17.049,17.049,0,0,0,3.466-.073,1.12,1.12,0,0,0,.907-1.389c-.51-2.24-3.466-1.9-5.213-1.12.56-.991,2.189-3.741.56-3.92s-3.393,3.477-3.948,4.67c-.823,1.753-1.641,4.177-.868,5.919C89.488,281.321,90.636,279.238,91.5,278.309Z" transform="translate(-52.278 -171.557)" fill="#dbdbdb"/>
      <path id="Path_3946" data-name="Path 3946" d="M91.3,280.457c1.366-1.641,5.281-2.128,5.241-2.929-.073-1.624-3.2-1.249-4.737-.722,1.154-1.008,3.433-2.828,2.733-4.077-.862-1.523-4.032,1.68-5.247,4.11-1.529,3.052-.638,4.849-.062,5.012C90.027,282.081,91.079,280.731,91.3,280.457Z" transform="translate(-52.33 -173.178)" fill="#ebebeb"/>
      <path id="Path_3947" data-name="Path 3947" d="M70.985,335.538l-3.4,26.038H88.3c-.426-2.307-4.284-26.066-4.284-26.066Z" transform="translate(-43.149 -200.978)" fill="#dbdbdb"/>
      <rect id="Rectangle_2021" data-name="Rectangle 2021" width="14.828" height="6.266" transform="translate(23.099 139.258) rotate(180)" fill="#ebebeb"/>
      <rect id="Rectangle_2022" data-name="Rectangle 2022" width="14.828" height="6.266" transform="translate(14.828 131.357) rotate(180)" fill="#ebebeb"/>
      <rect id="Rectangle_2024" data-name="Rectangle 2024" width="14.828" height="6.266" transform="translate(49.546)" fill="#ebebeb"/>
      <rect id="Rectangle_2025" data-name="Rectangle 2025" width="14.828" height="6.266" transform="translate(41.27 7.901)" fill="#ebebeb"/>
    </g>
    <g id="freepik--Table--inject-2" transform="translate(42.989 255.404)">
      <path id="Path_3948" data-name="Path 3948" d="M57.95,381.8l24.311-.134,24.311-.05,48.626-.1,48.621.1,24.316.05,24.311.134-24.311.14-24.316.045-48.621.1-48.626-.1-24.311-.05Z" transform="translate(-57.95 -381.52)" fill="#263238"/>
    </g>
    <g id="freepik--Character--inject-2" transform="translate(85.576 120.987)">
      <path id="Path_3949" data-name="Path 3949" d="M280.265,211.673a.56.56,0,0,0,.364.61c.588.09,1.3.185,2.1.3,2.369-5.141,4.788-9.189,4.1-7.588a29.036,29.036,0,0,0-2.033,7.873c.924.123,3.08.386,4.155.515,2.475-9.172,5.2-15.914,4.883-13.8-1.3,8.54-1.07,11.328-.773,14.313,10.04,1.221,23.227,2.665,32.786,3.489,1.562-5.04,3.024-10.55,3.158-10.147,1.047,3,1.025,7.229.762,10.477,3.046.241,5.488.37,6.983.37,0,0,1.12-4.267,1.322-5.678a31.509,31.509,0,0,0-.1-10.9,53.86,53.86,0,0,0-3.528-10.354.453.453,0,0,0-.017-.062h0a31.359,31.359,0,0,1-1.949-6.882.14.14,0,0,1,0-.056,30.988,30.988,0,0,1-.33-5.2c.123-6.372-2.733-12.1-8.159-14.173-9.267-9.469-22-5.124-25.591,2.884h0c-1.406,3.589-2.8,8.276-4.015,11.888h0a.039.039,0,0,1,0,.039h0a36.759,36.759,0,0,1-1.629,4.155C289.426,190.2,283.009,193.524,280.265,211.673Z" transform="translate(-228.038 -150.483)" fill="#263238"/>
      <path id="Path_3950" data-name="Path 3950" d="M362.033,172.337a11.706,11.706,0,0,1,5.6,10.113c.09,2.721,0,5.37.767,7.985a27.593,27.593,0,0,0,3.595,7.24c2.279,3.606,3.78,7.145,3.774,11.715s-.694,10.079-2.537,14.274c0,.028-.045,0-.034,0a39.824,39.824,0,0,0,1.82-14.946c-.353-5.085-2.727-8.433-5.113-12.448a21.531,21.531,0,0,1-3.085-10.539c-.067-2.307.179-4.687-.493-6.9-.8-2.643-2.7-4.429-4.6-6.025C361.473,172.572,361.77,172.164,362.033,172.337Z" transform="translate(-263.844 -156.158)" fill="#263238"/>
      <path id="Path_3951" data-name="Path 3951" d="M284.648,196.859c2.9-3.41,5.863-6.283,7.778-10.639,1.742-3.97,2.912-8.209,4.676-12.168,0-.067.118-.034.09.039-2.8,7.056-3.875,14.3-8.769,20.052-2.665,3.125-5.3,6.008-7.218,9.844a37.983,37.983,0,0,0-3.617,12.879.1.1,0,1,1-.207,0A31.14,31.14,0,0,1,284.648,196.859Z" transform="translate(-226.771 -156.915)" fill="#263238"/>
      <path id="Path_3952" data-name="Path 3952" d="M239.919,313.025s27.03,7.28,31.5,6.5,19.554-21.088,22.9-28.452,8.909-44,7.84-48.028-6.664-4.088-11.384,6.305-15.881,33.24-17.869,35.121S237.741,311.076,239.919,313.025Z" transform="translate(-210.242 -186.179)" fill="#dd6a57"/>
      <path id="Path_3953" data-name="Path 3953" d="M260.067,369.9c-4.144-2.167-9.189-7.425-12.627-7.974a3.993,3.993,0,0,0-4.295,2.049s-1.579-3.511-4.782-3.494c-1.641,0-3.074,2.643-3.074,2.643s-1.394-2.761-4.233-2.57c-2.268.151-3.36,2.772-3.36,2.772s-2.565-2.027-4.827-1.12c-4.581,1.809-5.342,21.279,1.714,24.571,3.287,1.534,3.214-3.231,3.214-3.231s1.758,6.832,5.768,7.089,3.545-5.924,3.545-5.924,1.764,6.6,5.947,6.451c4.357-.151,2.833-6.26,2.833-6.26s2.766,4.446,5.941,3.6c5.247-1.4-.392-11.939.8-16.178h6.591Z" transform="translate(-201.238 -238.965)" fill="#dd6a57"/>
      <path id="Path_3954" data-name="Path 3954" d="M280.227,367.159c4.1,1.714,8.786-4.765,13.008-3.259,5.477,1.954.414,8.713-7.884,9.811H278.76Z" transform="translate(-227.378 -240.369)" fill="#dd6a57"/>
      <path id="Path_3955" data-name="Path 3955" d="M232.7,366.21a.05.05,0,0,0-.1,0,33.83,33.83,0,0,0,.409,20.108c.073.2.442.174.4-.067A69.333,69.333,0,0,1,232.7,366.21Z" transform="translate(-206.481 -241.465)" fill="#263238"/>
      <path id="Path_3956" data-name="Path 3956" d="M246.719,364.949a.07.07,0,0,0-.14,0c-1.831,6.552-1.68,15.024,1.809,21.912.118.235.465.325.347.045C246.781,382.157,245.935,371.215,246.719,364.949Z" transform="translate(-212.708 -240.903)" fill="#263238"/>
      <path id="Path_3957" data-name="Path 3957" d="M264.11,388.206c-3.063-6.72-3.662-13.758-3.237-21.072,0-.1-.129-.1-.157,0-1.182,3.522-.963,8.209-.487,11.843a19.431,19.431,0,0,0,3.623,9.329C263.953,388.424,264.177,388.351,264.11,388.206Z" transform="translate(-219.056 -241.862)" fill="#263238"/>
      <path id="Path_3958" data-name="Path 3958" d="M278.876,361.789c-2.688-.9-5.448,1.254-7.711,2.458a13.439,13.439,0,0,1-2.279,1.081,4.645,4.645,0,0,1-3.92-.3c-1.254-.8-5.169-4.709-8-3.41a6.025,6.025,0,0,0-2.419,2.055c-.862-1.568-1.966-3.276-3.875-3.589a3.024,3.024,0,0,0-2.4.622,4.916,4.916,0,0,0-.941.958,4.44,4.44,0,0,0-.65,1.07.365.365,0,0,1,0-.039l-.062-.118-.118-.241a2.515,2.515,0,0,0-.666-.834.56.56,0,0,0-.409-.168.045.045,0,1,0,0,.09.65.65,0,0,1,.3.3c.09.134.174.274.269.4s.185.263.28.392l.14.207.062.106a.723.723,0,0,0,.09.1.084.084,0,0,0,.134,0h0a5.6,5.6,0,0,0,.778-.851,6.723,6.723,0,0,1,.935-.9,2.906,2.906,0,0,1,2.3-.56c1.714.336,2.8,1.859,3.713,3.22h.028c-.028.045.034.084.067.05a6.368,6.368,0,0,1,3.136-1.937,6,6,0,0,1,3.886,1.17,17.905,17.905,0,0,1,1.68,1.12c.476.37.93.784,1.439,1.12,2.178,1.372,4.564.308,5.157.056a29.876,29.876,0,0,0,3.4-1.8,9.587,9.587,0,0,1,3.64-1.473,3.578,3.578,0,0,1,3.237,1.21c.409.526.93,1.512-.14,3.757,0,0,0,.045.034.028C280.562,366.554,282.342,362.948,278.876,361.789Z" transform="translate(-212.695 -238.773)" fill="#263238"/>
      <path id="Path_3959" data-name="Path 3959" d="M327.317,275.959l-25.507-4.077s12.185-24.129,19.5-31.129c7.224-6.91,10.74.168,9.676,10.841C329.814,263.427,327.317,275.959,327.317,275.959Z" transform="translate(-237.521 -185.075)" fill="#37474f"/>
      <path id="Path_3960" data-name="Path 3960" d="M328.551,294.858c-.717-.168-1.45-.274-2.167-.437s-1.406-.263-2.111-.37c-1.439-.224-2.884-.426-4.323-.622-2.845-.392-5.689-.823-8.545-1.12-1.624-.179-3.237-.426-4.866-.56-.05,0-.056.078,0,.09,2.828.661,5.706,1.12,8.573,1.618s5.689.9,8.545,1.21c.8.09,1.607.19,2.408.23s1.652.118,2.475.129a.084.084,0,0,0,.011-.168Z" transform="translate(-239.584 -208.722)" fill="#263238"/>
      <path id="Path_3961" data-name="Path 3961" d="M317.859,317.562h67.549s-28.077-69.682-42.35-79.863c-4.284-3.057-11.11-3.4-15.713,2.738-3.774,5.04-14.251,25.059-14.727,32.26s5.174,14.318,5.174,14.318Z" transform="translate(-242.264 -183.997)" fill="#455a64"/>
      <path id="Path_3962" data-name="Path 3962" d="M361.94,297.581c.174-.045.342-.067.51-.1a1.014,1.014,0,0,1,1.237.986.784.784,0,0,0,.358.683.985.985,0,0,0,.42.146,5.12,5.12,0,0,1,.51.1c-.168.045-.336.067-.51.1a1,1,0,0,1-.56-.05,1.042,1.042,0,0,1-.633-.969.8.8,0,0,0-.386-.666,1.086,1.086,0,0,0-.431-.129C362.282,297.648,362.114,297.626,361.94,297.581Z" transform="translate(-263.98 -211.232)" fill="#fff"/>
      <path id="Path_3963" data-name="Path 3963" d="M315.8,297.581c.168-.045.336-.067.5-.1a1.014,1.014,0,0,1,1.238.986.789.789,0,0,0,.364.683.935.935,0,0,0,.42.146c.168.034.336.05.5.1-.168.045-.336.067-.5.1a1.014,1.014,0,0,1-.56-.05,1.058,1.058,0,0,1-.633-.969.8.8,0,0,0-.386-.666,1.058,1.058,0,0,0-.431-.129C316.136,297.648,315.968,297.626,315.8,297.581Z" transform="translate(-243.677 -211.232)" fill="#fff"/>
      <path id="Path_3964" data-name="Path 3964" d="M378.7,357.523c.168-.045.342-.067.51-.1a1.019,1.019,0,0,1,1.232.991.807.807,0,0,0,.364.683.98.98,0,0,0,.42.14c.168.034.342.056.51.1-.168.05-.342.073-.51.106a1,1,0,0,1-.56-.056,1.053,1.053,0,0,1-.638-.969.767.767,0,0,0-.386-.661.952.952,0,0,0-.426-.129A5.246,5.246,0,0,1,378.7,357.523Z" transform="translate(-271.355 -237.61)" fill="#fff"/>
      <path id="Path_3965" data-name="Path 3965" d="M399.56,300.821c.168-.05.342-.067.51-.1a1.008,1.008,0,0,1,1.232.986.8.8,0,0,0,.364.683.89.89,0,0,0,.42.14c.168.039.342.056.51.106-.168.045-.342.067-.51.1a.991.991,0,0,1-.56-.05,1.053,1.053,0,0,1-.638-.969.778.778,0,0,0-.386-.666,1.031,1.031,0,0,0-.426-.129C399.9,300.866,399.728,300.866,399.56,300.821Z" transform="translate(-280.534 -212.658)" fill="#fff"/>
      <path id="Path_3966" data-name="Path 3966" d="M346.23,270.333c.174-.045.342-.067.51-.1a1,1,0,0,1,.56.039,1.025,1.025,0,0,1,.666.952.818.818,0,0,0,.364.683,1.064,1.064,0,0,0,.42.14c.174.034.342.056.51.1-.168.05-.336.067-.51.106a1.053,1.053,0,0,1-.56-.056,1.041,1.041,0,0,1-.633-.986.784.784,0,0,0-.386-.661,1,1,0,0,0-.431-.134A2.763,2.763,0,0,1,346.23,270.333Z" transform="translate(-257.067 -199.243)" fill="#fff"/>
      <path id="Path_3967" data-name="Path 3967" d="M379.06,269.643c.168-.045.336-.067.51-.1a1.025,1.025,0,0,1,.56.039,1.042,1.042,0,0,1,.672.952.8.8,0,0,0,.364.683.958.958,0,0,0,.42.14c.168.034.336.056.51.1-.174.05-.342.073-.51.106a1,1,0,0,1-.56-.056,1.053,1.053,0,0,1-.638-.969.778.778,0,0,0-.386-.661.952.952,0,0,0-.426-.129A5.133,5.133,0,0,1,379.06,269.643Z" transform="translate(-271.514 -198.94)" fill="#fff"/>
      <path id="Path_3968" data-name="Path 3968" d="M357.81,238.131c.168-.045.342-.067.51-.1a1.008,1.008,0,0,1,1.232.986.79.79,0,0,0,.364.683.957.957,0,0,0,.42.146c.168.034.342.05.51.1-.168.045-.342.067-.51.1a.991.991,0,0,1-.56-.05,1.053,1.053,0,0,1-.638-.969.778.778,0,0,0-.386-.666,1.03,1.03,0,0,0-.426-.129C358.152,238.2,357.978,238.176,357.81,238.131Z" transform="translate(-262.163 -185.072)" fill="#fff"/>
      <path id="Path_3969" data-name="Path 3969" d="M338.18,322.663c.168-.045.336-.067.5-.1a.992.992,0,0,1,.56.039,1.025,1.025,0,0,1,.672.946.79.79,0,0,0,.364.683.934.934,0,0,0,.42.146c.168.034.336.056.5.1-.168.05-.336.067-.5.1a1.014,1.014,0,0,1-.56-.05,1.058,1.058,0,0,1-.633-.969.8.8,0,0,0-.386-.666,1.086,1.086,0,0,0-.431-.129A5.13,5.13,0,0,1,338.18,322.663Z" transform="translate(-253.525 -222.27)" fill="#fff"/>
      <path id="Path_3970" data-name="Path 3970" d="M374,377.589c.168-.05.342-.073.51-.106a1.019,1.019,0,0,1,1.232.991.806.806,0,0,0,.364.683.912.912,0,0,0,.42.14c.168.034.342.056.51.1-.168.05-.342.073-.51.106a1,1,0,0,1-.56-.056,1.047,1.047,0,0,1-.638-.969.767.767,0,0,0-.386-.661.952.952,0,0,0-.426-.129A4.944,4.944,0,0,1,374,377.589Z" transform="translate(-269.287 -246.437)" fill="#fff"/>
      <path id="Path_3971" data-name="Path 3971" d="M356.35,348.074c.168-.045.336-.067.5-.1a1.041,1.041,0,0,1,.56.039,1.03,1.03,0,0,1,.672.952.8.8,0,0,0,.364.683.929.929,0,0,0,.42.14c.168.034.336.056.51.1-.174.05-.342.067-.51.106a1.07,1.07,0,0,1-.56-.056,1.058,1.058,0,0,1-.633-.969.8.8,0,0,0-.386-.661.891.891,0,0,0-.431-.129C356.714,348.141,356.518,348.124,356.35,348.074Z" transform="translate(-261.521 -233.453)" fill="#fff"/>
      <path id="Path_3972" data-name="Path 3972" d="M323.74,353.439c.174-.05.342-.073.51-.106a1.019,1.019,0,0,1,1.232.991.806.806,0,0,0,.364.683.913.913,0,0,0,.42.14c.174.034.342.056.51.1a5.142,5.142,0,0,1-.51.106,1,1,0,0,1-.56-.056,1.047,1.047,0,0,1-.638-.969.773.773,0,0,0-.381-.661,1,1,0,0,0-.431-.129C324.082,353.506,323.914,353.484,323.74,353.439Z" transform="translate(-247.171 -235.81)" fill="#fff"/>
      <path id="Path_3973" data-name="Path 3973" d="M371.36,323.383c.168-.045.336-.067.5-.1a1.025,1.025,0,0,1,1.238.991.8.8,0,0,0,.364.683.93.93,0,0,0,.42.14c.168.034.336.056.5.1-.168.05-.336.067-.5.106a1.019,1.019,0,0,1-.56-.056,1.058,1.058,0,0,1-.633-.969.8.8,0,0,0-.386-.661.93.93,0,0,0-.431-.129C371.718,323.45,371.528,323.434,371.36,323.383Z" transform="translate(-268.125 -222.587)" fill="#fff"/>
      <path id="Path_3974" data-name="Path 3974" d="M413.05,363.793c.168-.045.342-.067.51-.1a1,1,0,0,1,.56.039,1.025,1.025,0,0,1,.666.952.818.818,0,0,0,.364.683,1.064,1.064,0,0,0,.42.14c.174.034.342.056.51.1-.168.05-.336.067-.51.106a1.019,1.019,0,0,1-1.2-1.025.767.767,0,0,0-.386-.661.952.952,0,0,0-.426-.134A4.229,4.229,0,0,1,413.05,363.793Z" transform="translate(-286.47 -240.368)" fill="#fff"/>
      <path id="Path_3975" data-name="Path 3975" d="M396.5,339.123c.168-.045.342-.067.51-.1a1.019,1.019,0,0,1,1.232.991.8.8,0,0,0,.364.683.89.89,0,0,0,.42.14c.168.034.342.056.51.1-.168.05-.342.073-.51.106a1,1,0,0,1-.56-.056,1.047,1.047,0,0,1-.638-.969.767.767,0,0,0-.386-.661.952.952,0,0,0-.426-.129A5.255,5.255,0,0,1,396.5,339.123Z" transform="translate(-279.188 -229.513)" fill="#fff"/>
      <path id="Path_3976" data-name="Path 3976" d="M431.68,375.073c.174-.045.342-.067.51-.1a1.019,1.019,0,0,1,1.232.991.806.806,0,0,0,.364.683.913.913,0,0,0,.42.14c.174.034.342.056.51.1a5.14,5.14,0,0,1-.51.106,1,1,0,0,1-.56-.056,1.036,1.036,0,0,1-.633-.969.8.8,0,0,0-.386-.661,1,1,0,0,0-.431-.129C432.022,375.146,431.859,375.124,431.68,375.073Z" transform="translate(-294.668 -245.332)" fill="#fff"/>
      <path id="Path_3977" data-name="Path 3977" d="M346.307,287.456c-.084.151-.19.286-.286.431a1.013,1.013,0,0,1-1.574.174.784.784,0,0,0-.739-.224.941.941,0,0,0-.4.2,4.8,4.8,0,0,1-.431.286c.09-.151.19-.286.286-.431a1.024,1.024,0,0,1,.442-.364,1.042,1.042,0,0,1,1.12.235.79.79,0,0,0,.745.2.974.974,0,0,0,.392-.213A5.14,5.14,0,0,0,346.307,287.456Z" transform="translate(-255.593 -206.83)" fill="#fff"/>
      <path id="Path_3978" data-name="Path 3978" d="M334.237,267.206c-.084.151-.19.286-.286.431a1.014,1.014,0,0,1-1.574.174.778.778,0,0,0-.739-.224.941.941,0,0,0-.4.2,4.789,4.789,0,0,1-.431.286c.09-.151.19-.286.286-.431a1.024,1.024,0,0,1,.442-.364,1.042,1.042,0,0,1,1.12.235.784.784,0,0,0,.745.2.974.974,0,0,0,.392-.213C333.951,267.4,334.086,267.29,334.237,267.206Z" transform="translate(-250.282 -197.92)" fill="#fff"/>
      <path id="Path_3979" data-name="Path 3979" d="M395.325,322.708c-.09.157-.19.291-.286.431a1.053,1.053,0,0,1-.431.375,1.025,1.025,0,0,1-1.12-.2.8.8,0,0,0-.739-.224.947.947,0,0,0-.4.2c-.146.1-.28.2-.431.286.084-.151.19-.286.286-.431a1.008,1.008,0,0,1,.437-.364,1.058,1.058,0,0,1,1.12.235.773.773,0,0,0,.739.2,1.007,1.007,0,0,0,.4-.207C395.056,322.9,395.19,322.8,395.325,322.708Z" transform="translate(-277.172 -222.344)" fill="#fff"/>
      <path id="Path_3980" data-name="Path 3980" d="M364.767,257.076c-.084.151-.19.286-.286.431a1.03,1.03,0,0,1-.426.37,1.041,1.041,0,0,1-1.148-.2.8.8,0,0,0-.739-.23.974.974,0,0,0-.4.2c-.146.1-.28.2-.431.291.084-.157.19-.291.286-.437a.974.974,0,0,1,.442-.358,1.042,1.042,0,0,1,1.12.235.806.806,0,0,0,.762.213,1.048,1.048,0,0,0,.392-.213C364.509,257.266,364.616,257.16,364.767,257.076Z" transform="translate(-263.716 -193.462)" fill="#fff"/>
      <path id="Path_3981" data-name="Path 3981" d="M343.587,242.116c-.084.151-.19.286-.286.431a1.075,1.075,0,0,1-.426.375,1.042,1.042,0,0,1-1.148-.2.784.784,0,0,0-.739-.224.913.913,0,0,0-.4.2c-.146.1-.28.2-.431.286.084-.151.19-.286.286-.431a.991.991,0,0,1,.442-.364,1.041,1.041,0,0,1,1.12.235.778.778,0,0,0,.745.2.974.974,0,0,0,.392-.213C343.3,242.306,343.43,242.2,343.587,242.116Z" transform="translate(-254.396 -186.879)" fill="#fff"/>
      <path id="Path_3982" data-name="Path 3982" d="M364.75,276.12c.05.168.067.342.106.51a1.12,1.12,0,0,1-.039.56,1.036,1.036,0,0,1-.952.666.8.8,0,0,0-.683.364.89.89,0,0,0-.14.42c-.039.168-.056.342-.106.51-.045-.168-.067-.342-.1-.51a.952.952,0,0,1,.056-.56,1.041,1.041,0,0,1,.969-.638.773.773,0,0,0,.661-.386,1.029,1.029,0,0,0,.129-.426C364.683,276.462,364.705,276.288,364.75,276.12Z" transform="translate(-264.366 -201.844)" fill="#fff"/>
      <path id="Path_3983" data-name="Path 3983" d="M357.537,329.39c.045.168.067.342.1.51a1.019,1.019,0,0,1-.991,1.232.8.8,0,0,0-.683.364.958.958,0,0,0-.14.42c-.034.168-.056.342-.1.51-.05-.168-.073-.342-.106-.51a1,1,0,0,1,.056-.56,1.053,1.053,0,0,1,.969-.638.767.767,0,0,0,.661-.386.952.952,0,0,0,.129-.426C357.464,329.732,357.5,329.558,357.537,329.39Z" transform="translate(-261.19 -225.285)" fill="#fff"/>
      <path id="Path_3984" data-name="Path 3984" d="M427.482,354.07c.05.168.073.336.106.5a1.025,1.025,0,0,1-.991,1.238.8.8,0,0,0-.683.364.868.868,0,0,0-.14.42c-.034.168-.056.336-.1.5-.05-.168-.073-.336-.106-.5a1.019,1.019,0,0,1,.056-.56,1.053,1.053,0,0,1,.969-.633.8.8,0,0,0,.661-.386,1,1,0,0,0,.129-.431C427.421,354.406,427.443,354.238,427.482,354.07Z" transform="translate(-291.971 -236.145)" fill="#fff"/>
      <path id="Path_3985" data-name="Path 3985" d="M395.077,283.5c.045.168.067.336.1.51a1.025,1.025,0,0,1-.039.56,1.042,1.042,0,0,1-.952.672.8.8,0,0,0-.683.364.957.957,0,0,0-.14.42c-.034.168-.056.336-.1.51-.05-.174-.067-.342-.106-.51a1.019,1.019,0,0,1,1.025-1.2.778.778,0,0,0,.661-.386.89.89,0,0,0,.129-.426C395.01,283.836,395.027,283.668,395.077,283.5Z" transform="translate(-277.709 -205.092)" fill="#fff"/>
      <path id="Path_3986" data-name="Path 3986" d="M395.079,369c.045.168.067.336.1.5a1.025,1.025,0,0,1-.991,1.238.8.8,0,0,0-.683.364.93.93,0,0,0-.14.42c-.034.168-.056.336-.1.5-.05-.168-.067-.336-.106-.5a1.069,1.069,0,0,1,.056-.56,1.058,1.058,0,0,1,.969-.633.8.8,0,0,0,.661-.386.89.89,0,0,0,.129-.431C395.012,369.353,395.029,369.185,395.079,369Z" transform="translate(-277.711 -242.714)" fill="#fff"/>
      <path id="Path_3987" data-name="Path 3987" d="M411.53,320.05c.05.168.067.342.1.51a1.008,1.008,0,0,1-.986,1.232.8.8,0,0,0-.683.364.89.89,0,0,0-.14.42c-.039.168-.056.342-.106.51-.045-.168-.067-.342-.1-.51a.952.952,0,0,1,.056-.56,1.042,1.042,0,0,1,.963-.638.778.778,0,0,0,.666-.386,1.03,1.03,0,0,0,.129-.426C411.463,320.392,411.5,320.218,411.53,320.05Z" transform="translate(-284.951 -221.175)" fill="#fff"/>
      <path id="Path_3988" data-name="Path 3988" d="M328.171,331.3c.05.168.067.336.1.5a1.014,1.014,0,0,1-.986,1.238.79.79,0,0,0-.683.364.868.868,0,0,0-.14.42c-.039.168-.056.336-.106.5-.045-.168-.067-.336-.1-.5a.974.974,0,0,1,.056-.56,1.042,1.042,0,0,1,.963-.633.8.8,0,0,0,.666-.386,1.031,1.031,0,0,0,.129-.431C328.1,331.636,328.126,331.468,328.171,331.3Z" transform="translate(-248.27 -226.125)" fill="#fff"/>
      <path id="Path_3989" data-name="Path 3989" d="M329.79,283.5a5.12,5.12,0,0,1,.1.51,1.019,1.019,0,0,1-.034.56,1.042,1.042,0,0,1-.952.672.79.79,0,0,0-.683.364.89.89,0,0,0-.14.42c-.039.168-.056.336-.106.51-.045-.174-.067-.342-.1-.51a.991.991,0,0,1,.05-.56,1.053,1.053,0,0,1,.969-.638.79.79,0,0,0,.666-.386,1.031,1.031,0,0,0,.129-.426C329.723,283.836,329.745,283.668,329.79,283.5Z" transform="translate(-248.982 -205.092)" fill="#fff"/>
      <path id="Path_3990" data-name="Path 3990" d="M347.228,252.43c.045.168.067.336.1.51a1.024,1.024,0,0,1-.039.56,1.042,1.042,0,0,1-.952.672.8.8,0,0,0-.683.364.958.958,0,0,0-.14.42c-.034.168-.056.336-.1.51-.05-.174-.067-.342-.106-.51a1.019,1.019,0,0,1,.056-.56,1.058,1.058,0,0,1,.969-.633.778.778,0,0,0,.661-.386.89.89,0,0,0,.129-.426C347.161,252.749,347.177,252.6,347.228,252.43Z" transform="translate(-256.654 -191.42)" fill="#fff"/>
      <path id="Path_3991" data-name="Path 3991" d="M342.548,300.46c.045.174.067.342.1.51a1.025,1.025,0,0,1-.991,1.238.8.8,0,0,0-.683.364.929.929,0,0,0-.14.42c-.034.168-.056.336-.1.5-.05-.168-.073-.336-.106-.5a1.019,1.019,0,0,1,.056-.56,1.058,1.058,0,0,1,.969-.633.8.8,0,0,0,.661-.386,1,1,0,0,0,.129-.431C342.475,300.8,342.509,300.634,342.548,300.46Z" transform="translate(-254.595 -212.555)" fill="#fff"/>
      <path id="Path_3992" data-name="Path 3992" d="M384.577,306.92c.045.168.067.342.1.51a1.019,1.019,0,0,1-.991,1.232.806.806,0,0,0-.683.364.98.98,0,0,0-.14.42c-.034.168-.056.342-.1.51-.05-.168-.067-.342-.106-.51a1,1,0,0,1,.056-.56,1.053,1.053,0,0,1,.969-.638.767.767,0,0,0,.661-.386.891.891,0,0,0,.129-.426C384.521,307.262,384.521,307.088,384.577,306.92Z" transform="translate(-273.089 -215.397)" fill="#fff"/>
      <path id="Path_3993" data-name="Path 3993" d="M345.73,360.86c.045.174.067.342.1.51a1.014,1.014,0,0,1-.986,1.237.778.778,0,0,0-.683.364.935.935,0,0,0-.146.414,5.129,5.129,0,0,1-.1.51c-.045-.168-.067-.336-.1-.51a1,1,0,0,1,.05-.56,1.042,1.042,0,0,1,.969-.633.8.8,0,0,0,.666-.386,1.087,1.087,0,0,0,.129-.431C345.663,361.2,345.685,361.034,345.73,360.86Z" transform="translate(-255.996 -239.132)" fill="#fff"/>
      <path id="Path_3994" data-name="Path 3994" d="M378.89,290.973c.09-.151.2-.286.291-.431a.991.991,0,0,1,.426-.37,1.03,1.03,0,0,1,1.12.2.812.812,0,0,0,.745.23.958.958,0,0,0,.392-.2c.146-.1.28-.2.437-.291-.09.157-.2.291-.291.437a1,1,0,0,1-.437.358,1.053,1.053,0,0,1-1.12-.235.8.8,0,0,0-.739-.2,1.047,1.047,0,0,0-.392.213A4.8,4.8,0,0,1,378.89,290.973Z" transform="translate(-271.439 -207.99)" fill="#fff"/>
      <path id="Path_3995" data-name="Path 3995" d="M354.38,313.171c.084-.151.19-.286.286-.431a1.014,1.014,0,0,1,1.574-.174.778.778,0,0,0,.739.224.941.941,0,0,0,.4-.2,4.794,4.794,0,0,1,.431-.286c-.09.151-.19.286-.286.431a1.019,1.019,0,0,1-1.579.129.778.778,0,0,0-.739-.2,1.047,1.047,0,0,0-.392.213C354.666,312.981,354.531,313.087,354.38,313.171Z" transform="translate(-260.654 -217.751)" fill="#fff"/>
      <path id="Path_3996" data-name="Path 3996" d="M337.76,345.891c.09-.157.2-.291.291-.431a1.014,1.014,0,0,1,1.573-.174.8.8,0,0,0,.739.224.941.941,0,0,0,.4-.2,4.785,4.785,0,0,1,.431-.286c-.09.151-.19.286-.286.431a1.014,1.014,0,0,1-1.574.129.784.784,0,0,0-.745-.2.958.958,0,0,0-.392.207C338.051,345.7,337.894,345.8,337.76,345.891Z" transform="translate(-253.34 -232.149)" fill="#fff"/>
      <path id="Path_3997" data-name="Path 3997" d="M344.94,379.895c.09-.151.2-.286.291-.431a.991.991,0,0,1,.426-.37,1.042,1.042,0,0,1,1.12.2.8.8,0,0,0,.739.23.957.957,0,0,0,.4-.2c.14-.1.274-.2.431-.286-.09.157-.19.291-.286.431a1.019,1.019,0,0,1-.442.364,1.053,1.053,0,0,1-1.12-.235.8.8,0,0,0-.739-.2,1.047,1.047,0,0,0-.392.213A4.02,4.02,0,0,1,344.94,379.895Z" transform="translate(-256.5 -247.119)" fill="#fff"/>
      <path id="Path_3998" data-name="Path 3998" d="M377.09,342.528c.084-.151.19-.286.286-.431a1.03,1.03,0,0,1,.426-.37,1.042,1.042,0,0,1,1.148.2.8.8,0,0,0,.739.23,1.015,1.015,0,0,0,.4-.2c.14-.1.274-.2.431-.291-.09.157-.19.291-.286.437a.974.974,0,0,1-.442.358,1.041,1.041,0,0,1-1.12-.235.806.806,0,0,0-.745-.2,1.047,1.047,0,0,0-.392.213C377.376,342.338,377.241,342.444,377.09,342.528Z" transform="translate(-270.647 -230.673)" fill="#fff"/>
      <path id="Path_3999" data-name="Path 3999" d="M399.21,356.075c.084-.151.19-.286.286-.431a1.064,1.064,0,0,1,.426-.37,1.041,1.041,0,0,1,1.12.2.8.8,0,0,0,.739.23.974.974,0,0,0,.4-.2c.146-.1.28-.2.431-.291-.084.157-.19.291-.286.437a.946.946,0,0,1-.442.358,1.042,1.042,0,0,1-1.12-.235.806.806,0,0,0-.745-.2,1.047,1.047,0,0,0-.392.213A3.849,3.849,0,0,1,399.21,356.075Z" transform="translate(-280.38 -236.638)" fill="#fff"/>
      <path id="Path_4000" data-name="Path 4000" d="M362,366.348c.084-.151.19-.286.286-.431a.991.991,0,0,1,.426-.37,1.042,1.042,0,0,1,1.148.2.8.8,0,0,0,.739.23.958.958,0,0,0,.4-.2c.14-.1.274-.2.431-.286-.09.157-.19.291-.286.431a.985.985,0,0,1-.442.364,1.041,1.041,0,0,1-1.12-.235.806.806,0,0,0-.745-.2,1.047,1.047,0,0,0-.392.213C362.286,366.158,362.151,366.264,362,366.348Z" transform="translate(-264.007 -241.155)" fill="#fff"/>
      <path id="Path_4001" data-name="Path 4001" d="M410,379.888c.09-.151.19-.286.286-.431a1.025,1.025,0,0,1,.426-.37,1.042,1.042,0,0,1,1.148.2.8.8,0,0,0,.739.23.974.974,0,0,0,.4-.2c.146-.1.28-.2.431-.291-.084.157-.19.291-.286.437a1,1,0,0,1-.437.358,1.047,1.047,0,0,1-1.12-.235.8.8,0,0,0-.739-.2,1.024,1.024,0,0,0-.4.213C410.28,379.7,410.146,379.8,410,379.888Z" transform="translate(-285.128 -247.113)" fill="#fff"/>
      <path id="Path_4002" data-name="Path 4002" d="M415.41,343.294c.084-.157.19-.291.286-.437a1.064,1.064,0,0,1,.426-.37,1.042,1.042,0,0,1,1.148.2.8.8,0,0,0,.739.23.974.974,0,0,0,.4-.2c.146-.1.28-.2.431-.291-.084.157-.19.291-.286.437a.946.946,0,0,1-.442.358,1.041,1.041,0,0,1-1.12-.235.8.8,0,0,0-.739-.2,1.025,1.025,0,0,0-.4.213C415.7,343.1,415.561,343.21,415.41,343.294Z" transform="translate(-287.509 -231.007)" fill="#fff"/>
      <path id="Path_4003" data-name="Path 4003" d="M327.75,371.034c.09-.157.19-.291.286-.437a1.064,1.064,0,0,1,.426-.37,1.042,1.042,0,0,1,1.148.2.8.8,0,0,0,.739.23.975.975,0,0,0,.4-.2c.146-.1.28-.2.431-.291-.084.157-.19.291-.286.437a.963.963,0,0,1-.437.358,1.047,1.047,0,0,1-1.12-.235.784.784,0,0,0-.739-.19.941.941,0,0,0-.4.207C328.036,370.838,327.89,370.944,327.75,371.034Z" transform="translate(-248.936 -243.214)" fill="#fff"/>
      <path id="Path_4004" data-name="Path 4004" d="M325,313.945c.084-.151.19-.286.286-.431a1.075,1.075,0,0,1,.426-.375,1.042,1.042,0,0,1,1.148.2.784.784,0,0,0,.739.224.851.851,0,0,0,.4-.2c.146-.1.28-.2.431-.286a4.794,4.794,0,0,1-.286.431,1.008,1.008,0,0,1-.437.364,1.047,1.047,0,0,1-1.12-.235.784.784,0,0,0-.739-.2,1.024,1.024,0,0,0-.4.213C325.291,313.755,325.157,313.861,325,313.945Z" transform="translate(-247.726 -218.094)" fill="#fff"/>
      <path id="Path_4005" data-name="Path 4005" d="M346.726,224.553c-.207,1.047-4.933,7.94-9.682,7.879-1.546-.028-1.792-8.472-1.792-8.472l-.162-.616-2.24-8.668,10.04-6.927,1.456-.918s.454,2.413,1,5.42a3.153,3.153,0,0,0,.073.431c.022.151.073.325.1.487.09.448.174.907.252,1.366.062.347.118.683.168,1.053s.106.728.168,1.12A57.674,57.674,0,0,1,346.726,224.553Z" transform="translate(-251.18 -171.354)" fill="#dd6a57"/>
      <path id="Path_4006" data-name="Path 4006" d="M345.343,212.25a17.981,17.981,0,0,1-10.253,11.093l-2.24-8.668,10.04-6.927,1.456-.918S344.8,209.243,345.343,212.25Z" transform="translate(-251.18 -171.354)" fill="#263238"/>
      <path id="Path_4007" data-name="Path 4007" d="M310.86,182.81c-.414,15.713,8.96,17.734,12.319,17.818,3.074.078,13.557-.045,15.6-15.629s-5.141-20.719-12.163-21.279S311.274,167.1,310.86,182.81Z" transform="translate(-241.497 -152.362)" fill="#dd6a57"/>
      <path id="Path_4008" data-name="Path 4008" d="M314.594,187.964c.37-.062.694-.174,1.053-.269a1.792,1.792,0,0,0,1.019-.482.56.56,0,0,0-.028-.683,1.394,1.394,0,0,0-1.383-.263,2.027,2.027,0,0,0-1.243.773.6.6,0,0,0,.582.924Z" transform="translate(-242.847 -162.271)" fill="#263238"/>
      <path id="Path_4009" data-name="Path 4009" d="M332.113,192.141a9.786,9.786,0,0,1-1.075-.179,1.758,1.758,0,0,1-1.053-.386.56.56,0,0,1-.034-.683,1.394,1.394,0,0,1,1.355-.386,2.027,2.027,0,0,1,1.3.666.594.594,0,0,1-.5.969Z" transform="translate(-249.86 -164.152)" fill="#263238"/>
      <path id="Path_4010" data-name="Path 4010" d="M318.5,198.483c0-.039-.078.056-.078.1.106,1.064.05,2.3-.89,2.721-.034,0,0,.067,0,.062C318.7,201.12,318.766,199.474,318.5,198.483Z" transform="translate(-244.431 -167.677)" fill="#263238"/>
      <path id="Path_4011" data-name="Path 4011" d="M316.439,196.61c-1.725,0-1.63,3.438-.028,3.455S317.878,196.627,316.439,196.61Z" transform="translate(-243.403 -166.857)" fill="#263238"/>
      <path id="Path_4012" data-name="Path 4012" d="M314.726,196.952c-.269.19-.526.526-.857.56s-.666-.33-.918-.683c0-.034-.05,0-.05.039,0,.661.241,1.344.874,1.45s.991-.476,1.12-1.12C314.933,197.059,314.832,196.874,314.726,196.952Z" transform="translate(-242.401 -166.948)" fill="#263238"/>
      <path id="Path_4013" data-name="Path 4013" d="M330.17,214.808a1.735,1.735,0,0,1-.924.6,2.833,2.833,0,0,1-1.12-.314.039.039,0,0,0-.05.056,1.439,1.439,0,0,0,1.344.627,1.12,1.12,0,0,0,.874-.918C330.27,214.8,330.209,214.774,330.17,214.808Z" transform="translate(-249.076 -174.858)" fill="#263238"/>
      <path id="Path_4014" data-name="Path 4014" d="M320.873,198.986s-.123,1.6-.084,2.352a15.511,15.511,0,0,1,4.368.381c.336.09.314-.185-.067-.386a6.406,6.406,0,0,0-3.69-.683c-.067-.207.241-2.464.123-2.464a6.569,6.569,0,0,0-1.68.482c.168-3.36.874-6.63.991-9.962a.1.1,0,0,0-.2-.039,53.95,53.95,0,0,0-1.529,10.69C319.076,199.782,320.582,199.132,320.873,198.986Z" transform="translate(-245.133 -163.332)" fill="#263238"/>
      <path id="Path_4015" data-name="Path 4015" d="M332.446,198.4a3.416,3.416,0,0,0-1.977-.157,2.8,2.8,0,0,0-.986.437,2.542,2.542,0,0,0-.734.862l-.33.61.678-.073a6.8,6.8,0,0,1,1.434,0,2.934,2.934,0,0,1,1.389.493,2.145,2.145,0,0,0-1.266-1.025,4.009,4.009,0,0,0-1.635-.185l.347.56a2.5,2.5,0,0,1,1.266-1.058A7.548,7.548,0,0,1,332.446,198.4Z" transform="translate(-249.23 -167.543)" fill="#263238"/>
      <path id="Path_4016" data-name="Path 4016" d="M330.494,202.165a5.657,5.657,0,0,1-1.45-.56c-.106-.067-.515-.375-.493-.465a3.184,3.184,0,0,1,.269-.75,2.072,2.072,0,0,0-.42.728,1.036,1.036,0,0,0,.526.7A3.007,3.007,0,0,0,330.494,202.165Z" transform="translate(-249.222 -168.521)" fill="#263238"/>
      <path id="Path_4017" data-name="Path 4017" d="M325.5,211a4.021,4.021,0,0,0,2.094,1.568c1.288.2,1.439-.958,0-1.618A3.881,3.881,0,0,0,325.5,211Z" transform="translate(-247.946 -173.106)" fill="#263238"/>
      <path id="Path_4018" data-name="Path 4018" d="M328.214,213.067a2.61,2.61,0,0,1-1.294-.689c.269-.4.885-.84,2.268-.1C329.389,212.754,329.031,213.168,328.214,213.067Z" transform="translate(-248.57 -173.577)" fill="#ff99ba"/>
      <path id="Path_4019" data-name="Path 4019" d="M339.2,184.737c-2.587.325-3.449-5.09-3.449-5.09s-5.275.269-7.386-7.235a11.709,11.709,0,0,0,2.643,6.16s-9.357-.56-13.652-8.136c0,0,1.758,3.892,3.293,5.23a10.89,10.89,0,0,1-6.014-3.976s-1.411,4.575-2.6,5.88c0,0-.409-16.3,14.761-15.3,0,0,9.475.168,13.232,7.481S339.2,184.737,339.2,184.737Z" transform="translate(-242.018 -151.725)" fill="#263238"/>
      <path id="Path_4020" data-name="Path 4020" d="M355.746,200.516s3.13-5.1,5.426-4.015.146,8.344-2.4,9.469a2.654,2.654,0,0,1-3.64-1.21Z" transform="translate(-260.984 -166.742)" fill="#dd6a57"/>
      <path id="Path_4021" data-name="Path 4021" d="M361.62,200.31c.039,0,.05.05,0,.067-1.786.851-2.643,2.6-3.214,4.407a1.5,1.5,0,0,1,2.167-.56c.05.028,0,.106-.045.1a1.624,1.624,0,0,0-1.758.678,7.457,7.457,0,0,0-.773,1.5c-.078.168-.375.1-.325-.09a.107.107,0,0,1,0-.045C357.515,204.056,359.128,200.7,361.62,200.31Z" transform="translate(-262.098 -168.485)" fill="#263238"/>
      <path id="Path_4022" data-name="Path 4022" d="M359,211.462a.728.728,0,1,0,.183-.53.733.733,0,0,0-.183.53Z" transform="translate(-262.685 -173.052)" fill="#fff"/>
      <path id="Path_4023" data-name="Path 4023" d="M362.139,209.512a.47.47,0,1,0,.442-.493.465.465,0,0,0-.442.493Z" transform="translate(-264.068 -172.317)" fill="#fff"/>
      <rect id="Rectangle_2026" data-name="Rectangle 2026" width="8.349" height="25.848" transform="matrix(0.974, -0.226, 0.226, 0.974, 38.983, 69.645)" fill="#ebebeb"/>
      <path id="Path_4024" data-name="Path 4024" d="M214.294,144.4a35.278,35.278,0,1,0,42.362,26.4,35.278,35.278,0,0,0-42.362-26.4Zm14.29,61.524a27.864,27.864,0,1,1,20.831-33.436,27.864,27.864,0,0,1-20.831,33.436Z" transform="translate(-187.002 -143.477)" fill="#a6a6a6"/>
      <rect id="Rectangle_2027" data-name="Rectangle 2027" width="12.622" height="37.848" rx="6.27" transform="matrix(0.974, -0.226, 0.226, 0.974, 41.017, 87.871)" fill="#263238"/>
      <g id="Group_4172" data-name="Group 4172" transform="translate(7.41 7.431)" opacity="0.3">
        <path id="Path_4025" data-name="Path 4025" d="M255.238,178.319A27.858,27.858,0,1,1,221.8,157.477,27.858,27.858,0,0,1,255.238,178.319Z" transform="translate(-200.235 -156.747)" fill="#fff"/>
        <path id="Path_4026" data-name="Path 4026" d="M276.8,209.29a27.875,27.875,0,0,1-29.118,26.285Z" transform="translate(-221.112 -179.867)" fill="#ebebeb"/>
        <path id="Path_4027" data-name="Path 4027" d="M243.117,161.185l-39.887,36a27.7,27.7,0,0,1-2.24-6.221,27.333,27.333,0,0,1-.694-7.543l29.449-26.582A27.825,27.825,0,0,1,243.117,161.185Z" transform="translate(-200.249 -156.788)" fill="#ebebeb"/>
        <path id="Path_4028" data-name="Path 4028" d="M263.524,186.584l-37.994,34.287a27.825,27.825,0,0,1-4.721-2.761l40.458-36.51A26.952,26.952,0,0,1,263.524,186.584Z" transform="translate(-209.289 -167.683)" fill="#ebebeb"/>
        <path id="Path_4029" data-name="Path 4029" d="M249.583,168.158,208.56,205.172c-.19-.28-.381-.56-.56-.846l40.788-36.807A8.816,8.816,0,0,1,249.583,168.158Z" transform="translate(-203.652 -161.487)" fill="#ebebeb"/>
        <path id="Path_4030" data-name="Path 4030" d="M222.019,158.68,203.82,175.1c.308-.778.655-1.54,1.036-2.279l14.8-13.361C220.423,159.173,221.213,158.91,222.019,158.68Z" transform="translate(-201.813 -157.597)" fill="#ebebeb"/>
      </g>
      <path id="Path_4031" data-name="Path 4031" d="M211.161,193.227a.793.793,0,0,1,0-.112c-.1-.56.073.532,0,.168a12.143,12.143,0,0,1-.146-1.294,27.069,27.069,0,0,1,0-4.569c0-.218.039-.431.056-.644,0-.067-.062.5,0,.05l.05-.392c.067-.5.151-1.008.252-1.506a24.894,24.894,0,0,1,.857-3.242c.084-.252.179-.5.269-.756.118-.342-.157.375.028-.073l.185-.442c.241-.56.5-1.12.784-1.68s.644-1.159,1-1.714c.168-.258.336-.51.51-.762.3-.431-.14.174.09-.129l.33-.437a25.67,25.67,0,0,1,3.4-3.528s.258-.207.067-.05.1-.084.134-.112l.56-.442c.375-.28.756-.56,1.148-.806a29,29,0,0,1,2.542-1.518,2.1,2.1,0,1,0-2.24-3.561,26.353,26.353,0,0,0-12.364,13.484,28.945,28.945,0,0,0-1.932,12.426,20.8,20.8,0,0,0,.358,2.8,2.105,2.105,0,0,0,2.609,1.417,2.167,2.167,0,0,0,1.417-2.615Z" transform="translate(-195.662 -153.103)" fill="#fff"/>
      <path id="Path_4032" data-name="Path 4032" d="M214.828,224.61a2.055,2.055,0,1,1-.993-1.228A2.061,2.061,0,0,1,214.828,224.61Z" transform="translate(-197.47 -178.529)" fill="#fff"/>
      <path id="Path_4033" data-name="Path 4033" d="M340.706,249.711c5.04,18.221,7.459,36.516,4.67,45.951-1.781,6.014-6.076,10.079-8.808,11.423-6.389,3.158-27.584-1.322-41.393-4.1-3.393-.683,4.609-28.026,8.019-26.576,5.04,2.133,20.467,5.012,20.892,5.152.913.314,2.8-19.459,4.133-31.05C330.061,234.362,337.8,239.189,340.706,249.711Z" transform="translate(-234.24 -185.974)" fill="#dd6a57"/>
      <path id="Path_4034" data-name="Path 4034" d="M246.362,292.925a4.123,4.123,0,0,0,.448,4.687,6.115,6.115,0,0,0-2.867,3.018c-.9,2.352,2.391,4.8,2.391,4.8a7.509,7.509,0,0,0-2.514,3.662c-.638,2.341,2.335,5.28,2.335,5.28a6.613,6.613,0,0,0-.185,4.614c1.484,3.981,7.84,5.286,11.871,6.16s16.284-.448,18.647-.459l5.8-25.831s-16.973-9.043-21.839-9.391C256.307,289.184,248.047,290.181,246.362,292.925Z" transform="translate(-211.964 -207.696)" fill="#dd6a57"/>
      <path id="Path_4035" data-name="Path 4035" d="M249.648,303.11c4.48-.734,8.881-.118,13.333.246a.078.078,0,1,1,0,.157c-4.429-.414-8.881.05-13.31-.185a.112.112,0,0,1-.022-.218Z" transform="translate(-214.534 -213.57)" fill="#263238"/>
      <path id="Path_4036" data-name="Path 4036" d="M248.579,317.418a11.564,11.564,0,0,1,3.069.2q1.618.213,3.231.482,3.231.56,6.428,1.238c.1,0,.09.168,0,.151-2.15-.353-4.3-.672-6.456-.935-1.081-.134-2.161-.252-3.248-.37a13.867,13.867,0,0,1-3.041-.465.157.157,0,0,1,.017-.3Z" transform="translate(-214.047 -220.004)" fill="#263238"/>
      <path id="Path_4037" data-name="Path 4037" d="M248.193,333.969a8.262,8.262,0,0,1,2.755.325c.98.185,1.954.358,2.934.532,1.96.347,3.92.689,5.891.969.1,0,.084.168,0,.151-2-.269-4.009-.515-6.008-.8-.98-.14-1.965-.291-2.945-.442a7.683,7.683,0,0,1-2.632-.633.056.056,0,0,1,.006-.1Z" transform="translate(-213.913 -227.282)" fill="#263238"/>
      <path id="Path_4038" data-name="Path 4038" d="M251.679,290.9c-2.033.263-4.362.711-5.678,2.441a3.673,3.673,0,0,0-.834,2.626,3.533,3.533,0,0,0,1.254,2.268h0a4.536,4.536,0,0,0-3.1,3.7,3.091,3.091,0,0,0,.8,2.335c.28.33.6.622.907.924s.65.56.969.823a8.523,8.523,0,0,0-.969.885,6.813,6.813,0,0,0-.9,1.064,4.754,4.754,0,0,0-.885,2.6,4.67,4.67,0,0,0,.93,2.57,5.325,5.325,0,0,0,1.865,1.87.045.045,0,0,0,.05-.073,7.683,7.683,0,0,1-1.518-1.909,4.911,4.911,0,0,1-.767-2.542,5.1,5.1,0,0,1,.84-2.391,12.568,12.568,0,0,1,.773-1.12,9.79,9.79,0,0,0,.773-.93s-.666-.706-.9-1.008-.465-.627-.678-.958a3.091,3.091,0,0,1-.56-2.167,3.993,3.993,0,0,1,.941-1.926c.47-.56,1.081-1,1.574-1.551a.252.252,0,0,0,.028-.2,3.586,3.586,0,0,1,.218-4.7,7.6,7.6,0,0,1,2.111-1.529,18.779,18.779,0,0,1,2.8-1.014C251.757,290.989,251.74,290.894,251.679,290.9Z" transform="translate(-211.749 -208.348)" fill="#263238"/>
      <path id="Path_4039" data-name="Path 4039" d="M295.433,354.8c-1.193-.37-2.453-.56-3.673-.829s-2.453-.521-3.685-.767-2.514-.493-3.769-.728-2.425-.5-3.645-.644a14.97,14.97,0,0,0-3.539.078q-1.775.2-3.561.286a51.431,51.431,0,0,1-7.2-.157,48.642,48.642,0,0,1-8.013-1.428c-.056,0-.073.067,0,.084a43.553,43.553,0,0,0,14.128,2.24c1.187,0,2.38-.073,3.561-.19a31.711,31.711,0,0,1,3.561-.3,22.909,22.909,0,0,1,3.741.56c1.238.23,2.469.465,3.707.683,1.4.246,2.8.5,4.205.717s2.8.532,4.177.633A.128.128,0,0,0,295.433,354.8Z" transform="translate(-218.377 -234.622)" fill="#263238"/>
      <path id="Path_4040" data-name="Path 4040" d="M334.253,310.566c-1.792-.61-3.685-.991-5.527-1.433s-3.707-.868-5.56-1.288c-3.539-.8-7.123-1.478-10.639-2.458-.924-.258-1.837-.56-2.738-.862a12.538,12.538,0,0,1-1.338-.56c-.442-.218-.952-.353-1.389-.56-.05-.034-.09.045-.039.078.353.218.678.482,1.042.694s.806.426,1.221.616a22.944,22.944,0,0,0,2.324.913c1.646.56,3.36.946,5.04,1.338q5.544,1.268,11.1,2.481c1.042.224,2.089.448,3.136.655s2.189.465,3.3.588a.106.106,0,0,0,.067-.2Z" transform="translate(-239.804 -213.846)" fill="#263238"/>
      <path id="Path_4041" data-name="Path 4041" d="M345.26,275.648l25.613,3.483s-4.681-26.626-9.659-35.446c-4.911-8.7-10.331-2.951-12.4,7.576C346.5,262.931,345.26,275.648,345.26,275.648Z" transform="translate(-256.641 -185.704)" fill="#37474f"/>
      <path id="Path_4042" data-name="Path 4042" d="M370.237,300.988c-.717-.168-1.45-.274-2.167-.431s-1.406-.263-2.111-.375c-1.439-.224-2.884-.426-4.329-.622-2.845-.392-5.684-.823-8.54-1.12-1.624-.179-3.242-.42-4.866-.56a.045.045,0,1,0,0,.09c2.828.661,5.712,1.154,8.579,1.618s5.689.9,8.545,1.215c.8.084,1.6.19,2.408.23s1.652.112,2.475.129a.087.087,0,0,0,.006-.174Z" transform="translate(-257.926 -211.419)" fill="#263238"/>
    </g>
    <g id="freepik--speech-bubble--inject-2" transform="translate(174.223 94.913)">
      <path id="Path_4043" data-name="Path 4043" d="M383.465,116.069a17.09,17.09,0,0,1-28.558,10.813l-8.556,1.26,4.284-7.4a17.1,17.1,0,1,1,32.842-4.676Z" transform="translate(-345.768 -97.031)" fill="#fff"/>
      <path id="Path_4044" data-name="Path 4044" d="M383.007,115.95a17.168,17.168,0,0,1-3.449,8.668,15.679,15.679,0,0,1-3.36,3.309,17.359,17.359,0,0,1-8.73,3.393,15.99,15.99,0,0,1-2.374.045,14.514,14.514,0,0,1-2.363-.246,17.252,17.252,0,0,1-8.461-4.172l.2.062-8.539,1.31-.622.1.314-.56,4.256-7.408v.291a17.309,17.309,0,0,1,21.441-22.959,17.5,17.5,0,0,1,6.591,4.043,17.169,17.169,0,0,1,5.1,14.128Zm0,0a16.932,16.932,0,0,0-26.453-15.679,17.583,17.583,0,0,0-5.113,5.6,16.889,16.889,0,0,0-2.173,7.235,17.186,17.186,0,0,0,1.2,7.448l.062.157-.078.14-4.306,7.38-.308-.454,8.562-1.2h.118l.084.078a16.889,16.889,0,0,0,8.192,4.217,14.654,14.654,0,0,0,2.318.286,17.187,17.187,0,0,0,2.341,0,16.8,16.8,0,0,0,4.564-1.008,15.891,15.891,0,0,0,4.127-2.24,18.483,18.483,0,0,0,1.8-1.506,19.374,19.374,0,0,0,1.557-1.764A17.18,17.18,0,0,0,383.007,115.95Z" transform="translate(-345.31 -96.913)" fill="#263238"/>
      <path id="Path_4045" data-name="Path 4045" d="M367.329,128.117a1.68,1.68,0,0,1,1.68-1.758,1.758,1.758,0,0,1,0,3.517,1.68,1.68,0,0,1-1.68-1.758Zm.711-4.054-.4-13.613h2.721l-.42,13.6Z" transform="translate(-354.998 -102.87)" fill="#407bff"/>
      <path id="Path_4046" data-name="Path 4046" d="M379,128.117a1.68,1.68,0,0,1,1.68-1.758,1.758,1.758,0,1,1,0,3.517,1.68,1.68,0,0,1-1.68-1.758Zm.711-4.054-.4-13.613h2.721l-.4,13.613Z" transform="translate(-360.133 -102.87)" fill="#407bff"/>
      <path id="Path_4047" data-name="Path 4047" d="M390.629,128.117a1.68,1.68,0,0,1,1.68-1.758,1.758,1.758,0,1,1,0,3.517,1.68,1.68,0,0,1-1.68-1.758Zm.711-4.054-.4-13.613h2.721l-.4,13.613Z" transform="translate(-365.251 -102.87)" fill="#407bff"/>
    </g>
  </g>
</svg>
