<svg xmlns="http://www.w3.org/2000/svg" xmlns:xlink="http://www.w3.org/1999/xlink" width="18" height="17" viewBox="0 0 18 17">
  <defs>
    <clipPath id="clip-path">
      <path id="Shape" d="M3.214,5.965.57,3.32A1.945,1.945,0,0,1,3.32.57l.106.106L3.531.57a1.945,1.945,0,1,1,2.75,2.75L3.637,5.965a.3.3,0,0,1-.423,0Z" transform="translate(0)" fill="#8c8c8c"/>
    </clipPath>
  </defs>
  <g id="Group_4223" data-name="Group 4223" transform="translate(-156.514 -14.832)">
    <g id="Group_4222" data-name="Group 4222">
      <g id="Group_4221" data-name="Group 4221">
        <g id="Group_4220" data-name="Group 4220">
          <g id="Ellipse_5" data-name="Ellipse 5" transform="translate(156.514 14.832)" fill="#fff" stroke="#fb0404" stroke-width="0.5">
            <ellipse cx="9" cy="8.5" rx="9" ry="8.5" stroke="none"/>
            <ellipse cx="9" cy="8.5" rx="8.75" ry="8.25" fill="none"/>
          </g>
        </g>
      </g>
    </g>
    <g id="ic-heart" transform="translate(162.194 18.283)">
      <rect id="Rectangle" width="9.135" height="9.135" transform="translate(0.109)" fill="none"/>
      <path id="Shape-2" data-name="Shape" d="M3.214,5.965.57,3.32A1.945,1.945,0,0,1,3.32.57l.106.106L3.531.57a1.945,1.945,0,1,1,2.75,2.75L3.637,5.965a.3.3,0,0,1-.423,0Z" transform="translate(0 2.774)" fill="none" stroke="red" stroke-width="0.4"/>
    </g>
  </g>
</svg>
