<svg xmlns="http://www.w3.org/2000/svg" width="18.19" height="16.666" viewBox="0 0 18.19 16.666">
  <g id="filter" transform="translate(-64.267 -80.334)" opacity="0.17">
    <path id="Path_3935" data-name="Path 3935" d="M81.746,81.858H70.908a2.235,2.235,0,0,0-4.238,0H64.979a.712.712,0,0,0,0,1.423H66.67a2.235,2.235,0,0,0,4.238,0H81.746a.712.712,0,1,0,0-1.423ZM68.789,83.383a.813.813,0,1,1,.813-.813A.814.814,0,0,1,68.789,83.383Z" transform="translate(0)"/>
    <path id="Path_3936" data-name="Path 3936" d="M81.746,210.391H80.054a2.235,2.235,0,0,0-4.238,0H64.979a.712.712,0,0,0,0,1.423H75.816a2.235,2.235,0,0,0,4.238,0h1.692a.712.712,0,1,0,0-1.423Zm-3.811,1.524a.813.813,0,1,1,.813-.813A.814.814,0,0,1,77.935,211.916Z" transform="translate(0 -122.436)"/>
    <path id="Path_3937" data-name="Path 3937" d="M81.746,338.924H73.957a2.235,2.235,0,0,0-4.238,0h-4.74a.712.712,0,0,0,0,1.423h4.74a2.235,2.235,0,0,0,4.238,0h7.789a.712.712,0,1,0,0-1.423Zm-9.908,1.524a.813.813,0,1,1,.813-.813A.814.814,0,0,1,71.838,340.449Z" transform="translate(0 -244.872)"/>
  </g>
</svg>
