<svg xmlns="http://www.w3.org/2000/svg" width="14.407" height="12.818" viewBox="0 0 14.407 12.818">
  <path id="heart" d="M7.2,12.818a.845.845,0,0,1-.557-.209C6.065,12.1,5.5,11.621,5.008,11.2l0,0A30.467,30.467,0,0,1,1.429,7.84,5.362,5.362,0,0,1,0,4.33,4.5,4.5,0,0,1,1.143,1.254,3.874,3.874,0,0,1,4.025,0,3.624,3.624,0,0,1,6.288.781a4.631,4.631,0,0,1,.915.956A4.632,4.632,0,0,1,8.119.781,3.624,3.624,0,0,1,10.383,0a3.874,3.874,0,0,1,2.882,1.254A4.5,4.5,0,0,1,14.407,4.33a5.362,5.362,0,0,1-1.429,3.51A30.464,30.464,0,0,1,9.4,11.2c-.5.423-1.058.9-1.641,1.412a.845.845,0,0,1-.557.209ZM4.025.844a3.039,3.039,0,0,0-2.261.982,3.663,3.663,0,0,0-.919,2.5A4.512,4.512,0,0,0,2.079,7.3a29.982,29.982,0,0,0,3.475,3.254l0,0c.5.424,1.06.9,1.647,1.416.59-.514,1.154-.995,1.652-1.419A29.989,29.989,0,0,0,12.329,7.3,4.512,4.512,0,0,0,13.563,4.33a3.663,3.663,0,0,0-.919-2.5A3.039,3.039,0,0,0,10.383.844a2.8,2.8,0,0,0-1.747.6,4.1,4.1,0,0,0-.974,1.127.533.533,0,0,1-.915,0,4.091,4.091,0,0,0-.974-1.127,2.8,2.8,0,0,0-1.747-.6Zm0,0" transform="translate(0 0)" fill="#fff"/>
</svg>
