<svg xmlns="http://www.w3.org/2000/svg" width="15" height="15" viewBox="0 0 15 15">
  <g id="mobile-store" transform="translate(0)">
    <path id="Path_4271" data-name="Path 4271" d="M14.907,4.156a.44.44,0,0,0-.347-.169H3.584L2.645.33A.44.44,0,0,0,2.219,0H.44a.439.439,0,1,0,0,.879H1.878L4.963,12.891a.44.44,0,0,0,.426.33h.06a1.31,1.31,0,1,0,2.443,0h2.249a1.31,1.31,0,1,0,2.443,0h.223a.439.439,0,1,0,0-.879H5.731L5.5,11.459H12.9a.44.44,0,0,0,.427-.332l1.662-6.594a.439.439,0,0,0-.08-.377ZM6.671,14.121a.429.429,0,1,1,.43-.429A.43.43,0,0,1,6.671,14.121Zm4.692,0a.429.429,0,1,1,.43-.429A.43.43,0,0,1,11.363,14.121Zm1.192-3.541H5.278L3.81,4.866H14Z" transform="translate(0)" fill="#fff"/>
  </g>
</svg>
