<svg xmlns="http://www.w3.org/2000/svg" width="17.853" height="12.002" viewBox="0 0 17.853 12.002">
  <g id="XMLID_11_" transform="translate(0 -70.693)">
    <path id="XMLID_823_" d="M17.8,76.511A8.415,8.415,0,0,0,16,73.583,9.233,9.233,0,0,0,9.09,70.7l-.16,0h0a9.267,9.267,0,0,0-7.078,2.89A8.415,8.415,0,0,0,.056,76.511L0,76.694l.056.183a8.415,8.415,0,0,0,1.793,2.929,9.233,9.233,0,0,0,6.915,2.888l.16,0h0A9.267,9.267,0,0,0,16,79.805,8.415,8.415,0,0,0,17.8,76.877l.056-.183ZM5.627,80.124a4.759,4.759,0,0,1,3.123-8.186c.06,0,.12,0,.18,0A4.759,4.759,0,0,1,9.1,81.45c-.06,0-.12,0-.18,0A4.734,4.734,0,0,1,5.627,80.124Z" transform="translate(0 0)" fill="#d9e0ff"/>
    <path id="XMLID_826_" d="M132.529,135.992a3.6,3.6,0,0,0-.131-7.19l-.135,0a3.6,3.6,0,0,0,.131,7.19Zm-.133-4.214a.621.621,0,1,1,.621.621A.621.621,0,0,1,132.4,131.777Z" transform="translate(-123.469 -55.704)" fill="#d9e0ff"/>
  </g>
</svg>
